<mxfile host="Electron" agent="Mozilla/5.0 (X11; Linux x86_64) AppleWebKit/537.36 (KHTML, like Gecko) draw.io/24.7.17 Chrome/128.0.6613.36 Electron/32.0.1 Safari/537.36" version="24.7.17">
  <diagram name="페이지-1" id="Rv94ZeHdXvJtW-SsgrfS">
    <mxGraphModel dx="1434" dy="843" grid="1" gridSize="10" guides="1" tooltips="1" connect="1" arrows="1" fold="1" page="1" pageScale="1" pageWidth="827" pageHeight="1169" math="0" shadow="0">
      <root>
        <mxCell id="0" />
        <mxCell id="1" parent="0" />
        <mxCell id="lGzPU3dBAmZDBw5_QE8P-1" value="" style="rounded=0;whiteSpace=wrap;html=1;" vertex="1" parent="1">
          <mxGeometry x="140" y="160" width="610" height="650" as="geometry" />
        </mxCell>
        <mxCell id="lGzPU3dBAmZDBw5_QE8P-2" value="TOP" style="text;html=1;align=center;verticalAlign=middle;whiteSpace=wrap;rounded=0;fontSize=24;" vertex="1" parent="1">
          <mxGeometry x="140" y="160" width="610" height="30" as="geometry" />
        </mxCell>
        <mxCell id="lGzPU3dBAmZDBw5_QE8P-3" value="&lt;span style=&quot;font-size: 16px;&quot;&gt;iMEM&lt;/span&gt;&lt;div&gt;&lt;span style=&quot;font-size: 16px;&quot;&gt;32x4096&lt;/span&gt;&lt;/div&gt;" style="rounded=0;whiteSpace=wrap;html=1;fillColor=#d5e8d4;strokeColor=#82b366;" vertex="1" parent="1">
          <mxGeometry x="620" y="380" width="120" height="420" as="geometry" />
        </mxCell>
        <mxCell id="lGzPU3dBAmZDBw5_QE8P-4" value="" style="rounded=0;whiteSpace=wrap;html=1;fillColor=#ffe6cc;strokeColor=#d79b00;" vertex="1" parent="1">
          <mxGeometry x="150" y="190" width="280" height="610" as="geometry" />
        </mxCell>
        <mxCell id="lGzPU3dBAmZDBw5_QE8P-5" value="&lt;font style=&quot;font-size: 16px;&quot;&gt;iCPU&lt;/font&gt;" style="text;html=1;align=center;verticalAlign=middle;whiteSpace=wrap;rounded=0;" vertex="1" parent="1">
          <mxGeometry x="150" y="190" width="280" height="30" as="geometry" />
        </mxCell>
        <mxCell id="lGzPU3dBAmZDBw5_QE8P-6" value="AddrDec" style="rounded=0;whiteSpace=wrap;html=1;" vertex="1" parent="1">
          <mxGeometry x="480" y="540" width="100" height="90" as="geometry" />
        </mxCell>
      </root>
    </mxGraphModel>
  </diagram>
</mxfile>
